inDegrees=yes
name=ik_S46_A01_T01
DataType=double
version=3
OpenSimVersion=4.3-2021-08-27-4bc7ad9
endheader
time	pelvis_tilt	pelvis_list	pelvis_rotation	pelvis_tx	pelvis_ty	pelvis_tz	hip_flexion_r	hip_adduction_r	hip_rotation_r	knee_angle_r	knee_angle_r_beta	ankle_angle_r	subtalar_angle_r	mtp_angle_r	hip_flexion_l	hip_adduction_l	hip_rotation_l	knee_angle_l	knee_angle_l_beta	ankle_angle_l	subtalar_angle_l	mtp_angle_l	lumbar_extension	lumbar_bending	lumbar_rotation	arm_flex_r	arm_add_r	arm_rot_r	elbow_flex_r	pro_sup_r	wrist_flex_r	wrist_dev_r	arm_flex_l	arm_add_l	arm_rot_l	elbow_flex_l	pro_sup_l	wrist_flex_l	wrist_dev_l
23.43999999999959	-3.852134677856579	-6.610623193327412	-92.54098323213523	0	0.9399999999999999	0	-3.967655866762018	4.31298295387723	-10.74742642726702	2.84858077833555	0.0497171135909781	0	0	0	19.40956756105471	-5.922182061116607	-6.330627376450188	14.91686021694504	0.2603483248454466	0	0	0	0	0	0	43.78580586256105	-43.78580586256105	4.990512944006767	84.86627321834658	85.0094873299058	0	0	43.78580586256105	-43.78580586256105	4.990512944006767	84.86627321834658	85.0094873299046	0	0
23.45999999999959	-3.922397983504413	-6.1664811796089	-92.85629877812192	0	0.9399999999999999	0	-4.882032656922322	4.45553299309436	-10.43068334371765	2.195683781423249	0.0383219113184752	0	0	0	19.00360592166885	-5.884074296549767	-6.897327003097835	14.16644285529596	0.2472510711205411	0	0	0	0	0	0	43.78244776219147	-43.78244776219147	4.990469931757645	84.86566692176794	85.00953034215348	0	0	43.78244776219147	-43.78244776219147	4.990469931757645	84.86566692176794	85.00953034215225	0	0
23.47999999999959	-4.110616339949396	-5.538012291047831	-93.05201285259301	0	0.9399999999999999	0	-4.291237351082017	4.624375965716516	-10.29736999873518	3.288604481018316	0.05739697598960897	0	0	0	19.13107220932153	-5.435668675782241	-6.830756329395967	6.747013749277744	0.1177576046022238	0	0	0	0	0	0	43.78323845509268	-43.78323845509268	4.990482197932091	84.86583982480576	85.00951807597934	0	0	43.78323845509268	-43.78323845509268	4.990482197932091	84.86583982480576	85.00951807597812	0	0
23.49999999999959	-4.275485641328318	-5.175113425677984	-93.08417010392751	0	0.9399999999999999	0	-5.272774170413411	4.848454947502625	-10.25134907314243	3.243389359530027	0.0566078232479491	0	0	0	20.0371310814903	-5.257795367339718	-5.040610909308255	1.460982063627162	0.02549894732287527	0	0	0	0	0	0	43.78371222222827	-43.78371222222827	4.990489639994403	84.86594472754227	85.00951063391732	0	0	43.78371222222827	-43.78371222222827	4.990489639994403	84.86594472754227	85.00951063391608	0	0
23.51999999999959	-5.243329511262091	-3.710793486561364	-93.19546698126	0	0.9399999999999999	0	-5.140357730373329	5.905893471941343	-9.901721403768473	3.473495600008219	0.0606239347736794	0	0	0	21.37774530786416	-5.887558144213799	-5.279073055760779	-2.85586168964843	-0.04984418946593356	0	0	0	0	0	0	43.78420069468343	-43.78420069468343	4.990497310390605	84.86605284885515	85.00950296352144	0	0	43.78420069468343	-43.78420069468343	4.990497310390605	84.86605284885515	85.00950296352021	0	0
23.53999999999959	-5.783232119369144	-3.107582117558348	-93.282758813629	0	0.9399999999999999	0	-5.669658376312009	6.564877868719763	-9.377213119091103	3.115409539450654	0.0543741540114541	0	0	0	21.54801672288759	-6.430985250837596	-7.665232810951121	-6.178247298566872	-0.1078307573624371	0	0	0	0	0	0	43.78137124151096	-43.78137124151096	4.990461354359687	84.86554601608763	85.00953891955118	0	0	43.78137124151096	-43.78137124151096	4.990461354359687	84.86554601608763	85.00953891954994	0	0
23.55999999999959	-6.077151678642553	-2.615842840093283	-93.19831623372241	0	0.9399999999999999	0	-7.378425909442285	7.226664190264866	-8.803964509144524	4.470758608346174	0.07802945777752038	0	0	0	22.25538540011404	-7.177985943224958	-6.194920131761361	-9.452055408384672	-0.1649694879572497	0	0	0	0	0	0	43.78175761301541	-43.78175761301541	4.990467422755618	84.86563155572911	85.00953285115546	0	0	43.78175761301541	-43.78175761301541	4.990467422755618	84.86563155572911	85.00953285115422	0	0
23.57999999999959	-6.154653615914325	-2.520784553697018	-93.04555660423584	0	0.9399999999999999	0	-8.450421188187336	7.182381190492671	-9.002238429996845	5.33211677577678	0.09306299383812904	0	0	0	22.70992446535301	-6.555903359592127	-7.202627630021794	-9.736237298418434	-0.1699293976128794	0	0	0	0	0	0	43.78222263538289	-43.78222263538289	4.990474751822779	84.86573486569689	85.00952552208855	0	0	43.78222263538289	-43.78222263538289	4.990474751822779	84.86573486569689	85.00952552208732	0	0
23.59999999999959	-6.249245409455749	-2.747274289268436	-92.64959902810303	0	0.9399999999999999	0	-9.734395876819061	7.199450319025019	-9.191453909570971	6.184914308822752	0.1079471186426664	0	0	0	22.16940796970638	-4.91362197550873	-5.435051680100633	-9.841590722661534	-0.1717681617441719	0	0	0	0	0	0	43.78268346929407	-43.78268346929407	4.990482008489941	84.86583715511908	85.00951826542165	0	0	43.78268346929407	-43.78268346929407	4.990482008489941	84.86583715511908	85.00951826542041	0	0
23.61999999999959	-6.214250440564545	-3.171881353652491	-92.17267141699065	0	0.9399999999999999	0	-10.99048228404853	7.088924449570924	-9.475932658136625	7.523113856630546	0.1313031068006117	0	0	0	20.50215643707348	-4.24603471606062	-0.34634316087473	-8.743649976150504	-0.15260548072575	0	0	0	0	0	0	43.78612866419805	-43.78612866419805	4.990529450019256	84.86650588672261	85.00947082389398	0	0	43.78612866419805	-43.78612866419805	4.990529450019256	84.86650588672261	85.00947082389277	0	0
23.63999999999958	-5.940188110362314	-3.772537353096972	-91.79732322864193	0	0.9399999999999999	0	-12.24691764491334	6.781877622810698	-10.11047473489036	8.05280058880318	0.1405478842811535	0	0	0	18.66647719007396	-4.63051626724664	-0.7189511411019298	-9.156499852641495	-0.1598110703869697	0	0	0	0	0	0	43.78652873757511	-43.78652873757511	4.990535731702856	84.86659443284887	85.00946454221054	0	0	43.78652873757511	-43.78652873757511	4.990535731702856	84.86659443284887	85.00946454220932	0	0
23.65999999999958	-5.569759466644342	-4.225920905008197	-92.07756325389403	0	0.9399999999999999	0	-12.78382961686195	6.177772614646154	-9.935166960804517	10.25436569754338	0.1789724441256969	0	0	0	17.01261481895222	-3.032228523790411	-7.940095589062282	-9.876276733991755	-0.1723735468462683	0	0	0	0	0	0	43.79059568013728	-43.79059568013728	4.990591813649766	84.8673849590169	85.00940846026559	0	0	43.79059568013728	-43.79059568013728	4.990591813649766	84.8673849590169	85.00940846026437	0	0
23.67999999999958	-4.995100951489189	-4.204134351591429	-92.57038900792318	0	0.9399999999999999	0	-13.37260884587443	5.134934345641036	-10.41009595123779	12.27008618165053	0.2141534033732609	0	0	0	15.94647890897791	-3.175637822184644	-13.4856116284447	-9.862755059770953	-0.1721375491107333	0	0	0	0	0	0	43.79385422763286	-43.79385422763286	4.990637063338079	84.86802279464989	85.00936321057881	0	0	43.79385422763286	-43.79385422763286	4.990637063338079	84.86802279464989	85.0093632105776	0	0
23.69999999999958	-4.585178657212782	-4.200983016719133	-92.69248867843366	0	0.9399999999999999	0	-13.54956041906267	3.94543097080552	-11.78847269154068	14.94246378436819	0.2607951913972369	0	0	0	15.15989839430214	-3.748509500331975	-11.86610099721179	-9.847541117342539	-0.1718720157231486	0	0	0	0	0	0	43.79668732432865	-43.79668732432865	4.990675861945309	84.86856969636295	85.00932441197291	0	0	43.79668732432865	-43.79668732432865	4.990675861945309	84.86856969636295	85.0093244119717	0	0
